<svg id="visual" viewBox="0 0 250 250" width="250" height="250" xmlns="http://www.w3.org/2000/svg" xmlns:xlink="http://www.w3.org/1999/xlink" version="1.1"><g transform="translate(124.37402773606561 130.5458541944508)"><path d="M62.1 -75.3C81.3 -57.8 98.2 -39.1 104.4 -16.6C110.6 6 106 32.2 92.1 50.3C78.2 68.4 55.2 78.2 31.6 86.8C8 95.4 -16 102.7 -38.5 97.9C-61 93.1 -82 76.3 -93.9 54.7C-105.8 33.1 -108.5 6.8 -103.4 -17.5C-98.2 -41.7 -85.1 -63.7 -66.5 -81.3C-48 -98.9 -24 -111.9 -1.3 -110.4C21.4 -108.9 42.9 -92.7 62.1 -75.3" fill="#FFFFFF"></path></g></svg>
