<svg id="visual" viewBox="0 0 250 250" width="250" height="250" xmlns="http://www.w3.org/2000/svg" xmlns:xlink="http://www.w3.org/1999/xlink" version="1.1"><g transform="translate(117.47638016054687 125.54593238506006)"><path d="M63.4 -73C83.9 -58.3 103.5 -40 109.7 -17.5C115.8 5 108.6 31.8 94.9 54.2C81.2 76.6 61.1 94.7 38.9 99.6C16.7 104.5 -7.7 96.3 -28.7 85.7C-49.7 75.1 -67.3 62 -79.3 44.3C-91.4 26.5 -97.9 4.1 -96.7 -19.6C-95.5 -43.2 -86.6 -67.9 -69.2 -83.2C-51.9 -98.5 -25.9 -104.2 -2.2 -101.5C21.4 -98.9 42.9 -87.7 63.4 -73" fill="#FFFFFF"></path></g></svg>
