<svg id="visual" viewBox="0 0 250 250" width="250" height="250" xmlns="http://www.w3.org/2000/svg" xmlns:xlink="http://www.w3.org/1999/xlink" version="1.1"><g transform="translate(131.94443111951324 115.10160320111586)"><path d="M68.6 -79.5C86.1 -67 95.7 -42.8 97.6 -19.2C99.4 4.4 93.4 27.5 83 50.1C72.6 72.8 57.7 95.1 36.3 105.4C14.9 115.6 -12.9 113.7 -37.5 104.2C-62.1 94.7 -83.4 77.6 -96.7 55.4C-109.9 33.3 -115 6 -109.8 -18.6C-104.5 -43.2 -88.9 -65.3 -68.9 -77.4C-48.9 -89.5 -24.4 -91.6 0.5 -92.3C25.5 -92.9 51 -92 68.6 -79.5" fill="#FFFFFF"></path></g></svg>